<svg version="1.1" id="Layer_1" xmlns="http://www.w3.org/2000/svg" x="0px" y="0px" viewBox="0 0 40.9 62.6" xml:space="preserve"><g><path fill="#389fff" d="M2.5,47.3c-0.1,0.6-0.2,1.5,0.3,2.9c1.6,4.3,6.7,6.8,7.8,7.3c4.2,2,8,2.1,9.7,2.1c0.8,0,4,0,8-1.3
          c1.5-0.5,3.7-1.2,6-2.9c2.2-1.6,3.1-3.1,3.4-3.5c0,0,0,0,0-0.1c0.3-0.5,1.3-2.1,1-4.1c0-0.3-0.4-2.2-2-3.4c0,0-2.7-1.8-5.7-0.2
          c-0.1,0-0.2,0.1-0.2,0.1c-0.2,0.2-0.4,0.3-0.4,0.3c-0.3,0.3-1.4,1.3-1.5,1.4c0,0-0.7,0.6-2.5,1.8c-0.2,0.1-0.4,0.3-0.4,0.3
          c0,0-0.1,0.1-0.1,0.1c-0.5,0.3-1.5,0.8-2.7,1.1c-0.9,0.2-2.8,0.8-5.2,0.2c-2-0.4-3.4-1.4-4-1.8c-0.9-0.6-1-0.9-3-2.5
          c-1.5-1.2-1.8-1.4-2.3-1.5c-1.8-0.6-3.5,0.3-3.7,0.5C4.8,44,2.9,45.1,2.5,47.3z"></path><path fill="#389fff" d="M37.7,21.3c0-4.8,0.1-9.7,0.1-14.5c-0.1-0.4-0.3-0.9-0.8-1.5c-0.3-0.5-1.1-1.5-2.5-2c-0.3-0.1-1.4-0.4-2.6,0
          c-1.6,0.5-2.3,1.9-2.5,2.2c-0.3,0.5-0.4,1-0.4,1.3c0,0.2,0,0.4,0,0.6c-2.7-1.6-5.8-2.6-9.2-2.6C10,4.9,2,12.9,2,22.8
          c0,9.9,8,17.8,17.8,17.8s17.8-8,17.8-17.8C37.7,22.3,37.6,21.8,37.7,21.3C37.6,21.3,37.7,21.3,37.7,21.3z M19.8,30.8
          c-4.5,0-8-3.6-8-8.1s3.6-8.1,8.1-8.1s8.1,3.6,8.1,8.1S24.3,30.8,19.8,30.8z"></path></g></svg>