<svg width="21" height="20" viewBox="0 0 21 20" fill="none" xmlns="http://www.w3.org/2000/svg">
<path fill-rule="evenodd" clip-rule="evenodd" d="M10.5 1.66675C8.19881 1.66675 6.33333 3.53223 6.33333 5.83341C6.33333 8.1346 8.19881 10.0001 10.5 10.0001C12.8012 10.0001 14.6667 8.1346 14.6667 5.83341C14.6667 3.53223 12.8012 1.66675 10.5 1.66675ZM8 5.83341C8 4.4527 9.11929 3.33341 10.5 3.33341C11.8807 3.33341 13 4.4527 13 5.83341C13 7.21413 11.8807 8.33342 10.5 8.33342C9.11929 8.33342 8 7.21413 8 5.83341Z" fill="#C4C4C4"/>
<path d="M7.16667 11.6667C6.0616 11.6667 5.00179 12.1057 4.22039 12.8871C3.43899 13.6685 3 14.7283 3 15.8334V17.5001C3 17.9603 3.3731 18.3334 3.83333 18.3334C4.29357 18.3334 4.66667 17.9603 4.66667 17.5001V15.8334C4.66667 15.1704 4.93006 14.5345 5.3989 14.0656C5.86774 13.5968 6.50363 13.3334 7.16667 13.3334H13.8333C14.4964 13.3334 15.1323 13.5968 15.6011 14.0656C16.0699 14.5345 16.3333 15.1704 16.3333 15.8334V17.5001C16.3333 17.9603 16.7064 18.3334 17.1667 18.3334C17.6269 18.3334 18 17.9603 18 17.5001V15.8334C18 14.7283 17.561 13.6685 16.7796 12.8871C15.9982 12.1057 14.9384 11.6667 13.8333 11.6667H7.16667Z" fill="#C4C4C4"/>
</svg>
