<svg width="22" height="22" viewBox="0 0 22 22" fill="none" xmlns="http://www.w3.org/2000/svg">
<path fill-rule="evenodd" clip-rule="evenodd" d="M11.5629 1.10984C11.2319 0.852383 10.7684 0.852383 10.4374 1.10984L2.18738 7.52651C1.9641 7.70018 1.8335 7.96721 1.8335 8.25008V18.3334C1.8335 19.0628 2.12323 19.7622 2.63895 20.278C3.15468 20.7937 3.85415 21.0834 4.5835 21.0834H17.4168C18.1462 21.0834 18.8456 20.7937 19.3614 20.278C19.8771 19.7622 20.1668 19.0628 20.1668 18.3334V8.25008C20.1668 7.96721 20.0362 7.70018 19.8129 7.52651L11.5629 1.10984ZM14.6668 19.2501H17.4168C17.6599 19.2501 17.8931 19.1535 18.065 18.9816C18.2369 18.8097 18.3335 18.5765 18.3335 18.3334V8.69841L11.0002 2.9947L3.66683 8.69841V18.3334C3.66683 18.5765 3.76341 18.8097 3.93531 18.9816C4.10722 19.1535 4.34038 19.2501 4.5835 19.2501H7.3335V11.0001C7.3335 10.4938 7.7439 10.0834 8.25016 10.0834H13.7502C14.2564 10.0834 14.6668 10.4938 14.6668 11.0001V19.2501ZM9.16683 19.2501V11.9167H12.8335V19.2501H9.16683Z" fill="#6D6E71"/>
</svg>
