<svg width="23" height="23" viewBox="0 0 23 23" fill="none" xmlns="http://www.w3.org/2000/svg">
<path fill-rule="evenodd" clip-rule="evenodd" d="M4.6665 4.66675C4.00346 4.66675 3.36758 4.93014 2.89874 5.39898C2.4299 5.86782 2.1665 6.50371 2.1665 7.16675V20.5001C2.1665 20.8371 2.36954 21.141 2.68093 21.27C2.99233 21.399 3.35076 21.3277 3.58909 21.0893L6.67835 18.0001H16.3332C16.9962 18.0001 17.6321 17.7367 18.1009 17.2678C18.5698 16.799 18.8332 16.1631 18.8332 15.5001V7.16675C18.8332 6.50371 18.5698 5.86782 18.1009 5.39898C17.6321 4.93014 16.9962 4.66675 16.3332 4.66675H4.6665ZM4.07725 6.57749C4.23353 6.42121 4.44549 6.33341 4.6665 6.33341H16.3332C16.5542 6.33341 16.7661 6.42121 16.9224 6.57749C17.0787 6.73377 17.1665 6.94573 17.1665 7.16675V15.5001C17.1665 15.7211 17.0787 15.9331 16.9224 16.0893C16.7661 16.2456 16.5542 16.3334 16.3332 16.3334H6.33317C6.11216 16.3334 5.9002 16.4212 5.74392 16.5775L3.83317 18.4882V7.16675C3.83317 6.94573 3.92097 6.73377 4.07725 6.57749Z" fill="#C4C4C4"/>
</svg>
