<svg width="21" height="20" viewBox="0 0 21 20" fill="none" xmlns="http://www.w3.org/2000/svg">
<g clip-path="url(#clip0_2031_818)">
<path fill-rule="evenodd" clip-rule="evenodd" d="M8 1.66675C5.69881 1.66675 3.83333 3.53223 3.83333 5.83341C3.83333 8.1346 5.69881 10.0001 8 10.0001C10.3012 10.0001 12.1667 8.1346 12.1667 5.83341C12.1667 3.53223 10.3012 1.66675 8 1.66675ZM5.5 5.83341C5.5 4.4527 6.61929 3.33341 8 3.33341C9.38071 3.33341 10.5 4.4527 10.5 5.83341C10.5 7.21413 9.38071 8.33341 8 8.33341C6.61929 8.33341 5.5 7.21413 5.5 5.83341Z" fill="#C4C4C4"/>
<path d="M4.66667 11.6667C3.5616 11.6667 2.50179 12.1057 1.72039 12.8871C0.938987 13.6685 0.5 14.7283 0.5 15.8334V17.5001C0.5 17.9603 0.873096 18.3334 1.33333 18.3334C1.79357 18.3334 2.16667 17.9603 2.16667 17.5001V15.8334C2.16667 15.1704 2.43006 14.5345 2.8989 14.0656C3.36774 13.5968 4.00363 13.3334 4.66667 13.3334H11.3333C11.9964 13.3334 12.6323 13.5968 13.1011 14.0656C13.5699 14.5345 13.8333 15.1704 13.8333 15.8334V17.5001C13.8333 17.9603 14.2064 18.3334 14.6667 18.3334C15.1269 18.3334 15.5 17.9603 15.5 17.5001V15.8334C15.5 14.7283 15.061 13.6685 14.2796 12.8871C13.4982 12.1057 12.4384 11.6667 11.3333 11.6667H4.66667Z" fill="#C4C4C4"/>
<path d="M16.3598 12.4001C16.4749 11.9545 16.9294 11.6865 17.375 11.8015C18.2689 12.0323 19.0608 12.5535 19.6264 13.2831C20.192 14.0128 20.4993 14.9096 20.5 15.8328V17.5001C20.5 17.9603 20.1269 18.3334 19.6667 18.3334C19.2064 18.3334 18.8333 17.9603 18.8333 17.5001V15.834C18.8329 15.2802 18.6485 14.742 18.3092 14.3042C17.9698 13.8665 17.4947 13.5538 16.9583 13.4153C16.5127 13.3002 16.2447 12.8457 16.3598 12.4001Z" fill="#C4C4C4"/>
<path d="M14.04 1.80113C13.5942 1.68697 13.1402 1.95586 13.026 2.40172C12.9119 2.84757 13.1808 3.30155 13.6266 3.41571C14.1644 3.5534 14.641 3.86615 14.9814 4.30465C15.3218 4.74316 15.5065 5.28248 15.5065 5.83759C15.5065 6.39269 15.3218 6.93201 14.9814 7.37052C14.641 7.80902 14.1644 8.12177 13.6266 8.25946C13.1808 8.37362 12.9119 8.8276 13.026 9.27345C13.1402 9.71931 13.5942 9.9882 14.04 9.87404C14.9363 9.64456 15.7307 9.12331 16.298 8.39247C16.8653 7.66163 17.1732 6.76276 17.1732 5.83759C17.1732 4.91241 16.8653 4.01354 16.298 3.2827C15.7307 2.55186 14.9363 2.03061 14.04 1.80113Z" fill="#C4C4C4"/>
</g>
<defs>
<clipPath id="clip0_2031_818">
<rect width="20" height="20" fill="white" transform="translate(0.5)"/>
</clipPath>
</defs>
</svg>
