<svg width="21" height="20" viewBox="0 0 21 20" fill="none" xmlns="http://www.w3.org/2000/svg">
<path fill-rule="evenodd" clip-rule="evenodd" d="M8.8335 1.66675C8.17045 1.66675 7.53457 1.93014 7.06573 2.39898C6.59689 2.86782 6.3335 3.50371 6.3335 4.16675V5.00008H3.8335C2.45278 5.00008 1.3335 6.11937 1.3335 7.50008V15.8334C1.3335 17.2141 2.45278 18.3334 3.8335 18.3334H17.1668C18.5475 18.3334 19.6668 17.2141 19.6668 15.8334V7.50008C19.6668 6.11937 18.5475 5.00008 17.1668 5.00008H14.6668V4.16675C14.6668 3.50371 14.4034 2.86782 13.9346 2.39898C13.4658 1.93014 12.8299 1.66675 12.1668 1.66675H8.8335ZM13.0002 5.00008V4.16675C13.0002 3.94573 12.9124 3.73377 12.7561 3.57749C12.5998 3.42121 12.3878 3.33341 12.1668 3.33341H8.8335C8.61248 3.33341 8.40052 3.42121 8.24424 3.57749C8.08796 3.73377 8.00016 3.94573 8.00016 4.16675V5.00008H13.0002ZM8.00016 6.66675H13.0002V16.6667H8.00016V6.66675ZM6.3335 6.66675H3.8335C3.37326 6.66675 3.00016 7.03984 3.00016 7.50008V15.8334C3.00016 16.2937 3.37326 16.6667 3.8335 16.6667H6.3335V6.66675ZM14.6668 16.6667V6.66675H17.1668C17.6271 6.66675 18.0002 7.03984 18.0002 7.50008V15.8334C18.0002 16.2937 17.6271 16.6667 17.1668 16.6667H14.6668Z" fill="#C4C4C4"/>
</svg>
