<svg width="22" height="22" viewBox="0 0 22 22" fill="none" xmlns="http://www.w3.org/2000/svg">
<path fill-rule="evenodd" clip-rule="evenodd" d="M13.8951 7.16373C14.5596 7.83456 15.4813 8.25008 16.5002 8.25008C18.5252 8.25008 20.1668 6.60846 20.1668 4.58342C20.1668 2.55837 18.5252 0.916748 16.5002 0.916748C14.4751 0.916748 12.8335 2.55837 12.8335 4.58342C12.8335 4.92903 12.8813 5.26348 12.9707 5.5805L8.10531 8.41984C7.44081 7.74897 6.51902 7.33342 5.50016 7.33342C3.47512 7.33342 1.8335 8.97504 1.8335 11.0001C1.8335 13.0251 3.47512 14.6667 5.50016 14.6667C6.5192 14.6667 7.44115 14.251 8.10567 13.58L12.9718 16.4156C12.8817 16.7338 12.8335 17.0697 12.8335 17.4167C12.8335 19.4418 14.4751 21.0834 16.5002 21.0834C18.5252 21.0834 20.1668 19.4418 20.1668 17.4167C20.1668 15.3917 18.5252 13.7501 16.5002 13.7501C15.4829 13.7501 14.5623 14.1644 13.8981 14.8334L9.0298 11.9966C9.11907 11.6797 9.16683 11.3455 9.16683 11.0001C9.16683 10.6545 9.11902 10.3201 9.02966 10.0031L13.8951 7.16373ZM16.5002 2.75008C15.4876 2.75008 14.6668 3.57089 14.6668 4.58342C14.6668 4.90151 14.7478 5.20068 14.8904 5.46143C14.8999 5.4758 14.909 5.49051 14.9178 5.50556C14.9265 5.5205 14.9348 5.53559 14.9425 5.5508C15.2661 6.07069 15.8427 6.41675 16.5002 6.41675C17.5127 6.41675 18.3335 5.59594 18.3335 4.58342C18.3335 3.57089 17.5127 2.75008 16.5002 2.75008ZM7.05866 10.0341C7.06623 10.0488 7.07424 10.0635 7.0827 10.078C7.09121 10.0925 7.10006 10.1068 7.10924 10.1207C7.25221 10.3818 7.3335 10.6814 7.3335 11.0001C7.3335 11.3188 7.25219 11.6184 7.10919 11.8795C7.09992 11.8936 7.09099 11.908 7.0824 11.9227C7.07408 11.937 7.06618 11.9514 7.05871 11.966C6.73531 12.4867 6.15823 12.8334 5.50016 12.8334C4.48764 12.8334 3.66683 12.0126 3.66683 11.0001C3.66683 9.98756 4.48764 9.16675 5.50016 9.16675C6.15819 9.16675 6.73525 9.51342 7.05866 10.0341ZM14.6668 17.4167C14.6668 17.1188 14.7379 16.8375 14.864 16.5888C14.8867 16.559 14.9079 16.5274 14.9272 16.4941C14.9458 16.4622 14.9623 16.4297 14.9766 16.3966C15.3056 15.9062 15.8652 15.5834 16.5002 15.5834C17.5127 15.5834 18.3335 16.4042 18.3335 17.4167C18.3335 18.4293 17.5127 19.2501 16.5002 19.2501C15.4876 19.2501 14.6668 18.4293 14.6668 17.4167Z" fill="#6D6E71" fill-opacity="0.73"/>
</svg>
